# xmcd CD database generated by RipIT
#
# Track frame offsets:
# 150
# 15621
# 32624
# 49391
# 65101
#
# Disc length: 1109 seconds
#
# Revision: 0
# Processed by: cddbd v1.5.2PL0 Copyright (c) Steve Scherf et al.
# Submitted via: RipIT 3.9.0 www.suwald.com/ripit/ripit.html on 2012-08-20 at 21:52
#
DISCID=40045305
DTITLE=Buckcherry - 15 - Bonus Disc
DYEAR=2009
DGENRE=
TTITLE0=Tired Of You - Live from Rockline
TTITLE1=Don't Go Away - Live from Rockline
TTITLE2=Sorry - Acoustic
TTITLE3=Nothing - Demo
TTITLE4=Stayin' High - Demo
EXTD=
EXTT0=
EXTT1=
EXTT2=
EXTT3=
EXTT4=
PLAYORDER=
